<svg version="1.1" viewBox="0 0 36 36" xmlns="http://www.w3.org/2000/svg">
    <path d="m31 31.291c0 2.0935-1.791 3.7908-4 3.7908h-22c-2.209 0-4-1.6973-4-3.7908v-26.536c0-2.0935 1.791-3.7908 4-3.7908h22c2.209 0 4 1.6973 4 3.7908z" fill="#CCD6DD" style="fill:#fff;stroke:#000"/>
    <path d="M27 24c0 .553-.447 1-1 1H6c-.552 0-1-.447-1-1 0-.553.448-1 1-1h20c.553 0 1 .447 1 1zm-16 4c0 .553-.448 1-1 1H6c-.552 0-1-.447-1-1 0-.553.448-1 1-1h4c.552 0 1 .447 1 1zM27 8c0 .552-.447 1-1 1H6c-.552 0-1-.448-1-1s.448-1 1-1h20c.553 0 1 .448 1 1zm0 4c0 .553-.447 1-1 1H6c-.552 0-1-.447-1-1 0-.553.448-1 1-1h20c.553 0 1 .447 1 1zm0 4c0 .553-.447 1-1 1H6c-.552 0-1-.447-1-1 0-.553.448-1 1-1h20c.553 0 1 .447 1 1zm0 4c0 .553-.447 1-1 1H6c-.552 0-1-.447-1-1 0-.553.448-1 1-1h20c.553 0 1 .447 1 1z" fill="#99AAB5"/>
    <path transform="rotate(-50.595)" d="m-9.1248 26.1a6.8238 6.8238 0 0 1 8.8858 1.1903 6.8238 6.8238 0 0 1 0.0379 8.9651 6.8238 6.8238 0 0 1-8.8754 1.2654" style="fill:none;paint-order:normal;stroke-linecap:round;stroke-linejoin:round;stroke-width:3;stroke:#090"/>
    <path transform="matrix(.78922 -.96066 1.0633 .87352 -6.4408 18.738)" d="m5.2358 17.76 4.1195 2.6946-4.3934 2.2203z" style="fill-rule:evenodd;fill:#090;paint-order:normal;stroke-linecap:round;stroke-linejoin:round;stroke-width:2.2936;stroke:#090"/>
</svg>
