<svg version="1.1" viewBox="0 0 36 36" xmlns="http://www.w3.org/2000/svg">
    <path d="m20.196 21.525c0 1.4134-1.146 2.5594-2.5594 2.5594h-14.077c-1.4134 0-2.5594-1.146-2.5594-2.5594v-17.916c0-1.4134 1.146-2.5594 2.5594-2.5594h14.077c1.4134 0 2.5594 1.146 2.5594 2.5594z" fill="#CCD6DD" style="fill:#fff;stroke:#000"/>
    <path d="m17.636 15.356c0 0.35384-0.28601 0.63985-0.63985 0.63985h-12.797c-0.3532 0-0.63985-0.28601-0.63985-0.63985s0.28665-0.63985 0.63985-0.63985h12.797c0.35384 0 0.63985 0.28601 0.63985 0.63985zm-10.238 2.5594c0 0.35384-0.28665 0.63985-0.63985 0.63985h-2.5594c-0.3532 0-0.63985-0.28601-0.63985-0.63985s0.28665-0.63985 0.63985-0.63985h2.5594c0.3532 0 0.63985 0.28601 0.63985 0.63985zm10.238-12.797c0 0.3532-0.28601 0.63985-0.63985 0.63985h-12.797c-0.3532 0-0.63985-0.28665-0.63985-0.63985s0.28665-0.63985 0.63985-0.63985h12.797c0.35384 0 0.63985 0.28665 0.63985 0.63985zm0 2.5594c0 0.35384-0.28601 0.63985-0.63985 0.63985h-12.797c-0.3532 0-0.63985-0.28601-0.63985-0.63985s0.28665-0.63985 0.63985-0.63985h12.797c0.35384 0 0.63985 0.28601 0.63985 0.63985zm0 2.5594c0 0.35384-0.28601 0.63985-0.63985 0.63985h-12.797c-0.3532 0-0.63985-0.28601-0.63985-0.63985s0.28665-0.63985 0.63985-0.63985h12.797c0.35384 0 0.63985 0.28601 0.63985 0.63985zm0 2.5594c0 0.35384-0.28601 0.63985-0.63985 0.63985h-12.797c-0.3532 0-0.63985-0.28601-0.63985-0.63985s0.28665-0.63985 0.63985-0.63985h12.797c0.35384 0 0.63985 0.28601 0.63985 0.63985z" fill="#99aab5" style="stroke-width:1.5628"/>
    <path d="m20.004 25.795c-1.2971 0-2.3887 1.0916-2.3887 2.3887v4.7852c0 1.2971 1.0916 2.3867 2.3887 2.3867h13.053c1.2971 0 2.3867-1.0896 2.3867-2.3867v-4.7852c0-1.2971-1.0896-2.3887-2.3867-2.3887zm0.61133 3h11.828v3.5605h-11.828z" style="-inkscape-stroke:none;color:#000000;fill:#3c83c5;stroke-linecap:round;stroke-linejoin:round"/>
    <path d="m8.9041 14.351c-0.12208-0.0095-0.24487-0.0029-0.36524 0.01953-0.36547 0.06685-0.68938 0.27623-0.90039 0.58203-1.917 2.7818-3.2056 6.3955-2.9492 9.7285 0.12821 1.6665 0.681 3.2999 1.8535 4.5586 0.90101 0.96726 2.1419 1.6643 3.6582 2.0215l-0.30469 2.7988c-0.08095 0.74956 0.47874 1.2865 1.0078 0.9668l5.7773-3.4863c0.53019-0.31842 0.63333-1.2564 0.18555-1.6875l-4.8867-4.6973c-0.20757-0.1998-0.48673-0.23181-0.73242-0.08398-0.2461 0.14819-0.42112 0.45429-0.45898 0.80273l-0.28125 2.582c-0.86745-0.24962-1.4695-0.64758-1.916-1.127-0.65256-0.70054-1.0189-1.6614-1.1113-2.8633-0.18493-2.4038 0.88127-5.6279 2.4648-7.9258 0.43859-0.63694 0.27768-1.5088-0.35938-1.9473-0.20207-0.13905-0.43713-0.22257-0.68164-0.24219z" style="-inkscape-stroke:none;color:#000000;fill:#f00;paint-order:stroke fill markers"/>
</svg>
