<svg version="1.1" viewBox="0 0 18 18" xmlns="http://www.w3.org/2000/svg">
    <g transform="matrix(.28123 0 0 .28123 .00064 -.13998)" style="stroke-width:3.5558">
        <circle cx="32" cy="33" r="28" style="opacity:.2;stroke-width:3.5558"/>
        <circle cx="32" cy="32" r="28" style="fill:#3f9142;stroke-width:3.5558"/>
        <circle cx="32" cy="33" r="22" style="opacity:.1;stroke-width:3.5558"/>
        <circle cx="32" cy="32" r="22" style="fill:#fdff58;stroke-width:3.5558"/>
        <path d="m47.037 35.735c0 4.6849-1.181 8.2326-3.5429 10.643-2.361 2.395-5.897 3.594-10.605 3.594-3.313 0-6.174-0.721-8.582-2.162-2.392-1.455-4.202-3.472-5.429-6.049-1.227-2.593-1.84-5.602-1.84-9.029 0-3.2446 0.64348-6.1329 1.9318-8.6649s3.1442-4.5106 5.5675-5.9358c2.424-1.44 5.23-2.159 8.421-2.159 3.5123 0 6.388 0.88597 8.6273 2.6599 2.254 1.774 4.079 4.338 4.953 7.34h-6c-0.567-1.395-1.714-2.723-3.048-3.633-1.335-0.91-2.876-1.367-4.624-1.367-2.8221 0-5.2454 1.1168-7.2699 3.3455-2.0245 2.2136-3.0368 5.0109-3.0368 8.392l1.9e-4 5e-4c0 2.2743 0.40643 4.3363 1.2193 6.186 0.8282 1.8345 2.0245 3.3052 3.589 4.412 1.5797 1.1068 3.3972 1.664 5.4525 1.664 1.6104 0 3.0368-0.2009 4.2791-0.5951 1.2577-0.40937 2.2853-1.0613 3.0828-1.9559 0.84548-0.80172 1.829-2.6852 1.356-5.7042h-8.9994v-5h14.499" style="fill:#fff;opacity:.2;stroke-width:3.5558"/>
        <path d="m46.999 34.763c0 4.6849-1.181 8.2326-3.5429 10.643-2.361 2.395-5.897 3.594-10.605 3.594-3.313 0-6.174-0.721-8.582-2.162-2.392-1.455-4.202-3.472-5.429-6.049-1.227-2.593-1.84-5.602-1.84-9.029 0-3.2446 0.64348-6.1329 1.9318-8.6649s3.1442-4.5106 5.5675-5.9358c2.424-1.44 5.23-2.159 8.421-2.159 3.5123 0 6.388 0.88597 8.6273 2.6599 2.254 1.774 4.079 4.338 4.953 7.34h-6c-0.567-1.395-1.714-2.723-3.048-3.633-1.335-0.91-2.876-1.367-4.624-1.367-2.8221 0-5.2454 1.1168-7.2699 3.3455-2.0245 2.2136-3.0368 5.0109-3.0368 8.392l1.9e-4 5e-4c0 2.2743 0.40643 4.3363 1.2193 6.186 0.8282 1.8345 2.0245 3.3052 3.589 4.412 1.5797 1.1068 3.3972 1.664 5.4525 1.664 1.6104 0 3.0368-0.2009 4.2791-0.5951 1.2577-0.40937 2.2853-1.0613 3.0828-1.9559 0.84548-0.80172 1.829-2.6852 1.356-5.7042h-8.9994v-5h14.499" style="fill:#3f9142;stroke-width:3.5558"/>
        <path d="M 32,10 A 22,22 0 0 0 10,32 22,22 0 0 0 10.021,32.586 22,22 0 0 1 32,11 22,22 0 0 1 53.979,32.414 22,22 0 0 0 54,32 22,22 0 0 0 32,10 Z" style="fill:#fff;opacity:.2;stroke-width:3.5558"/>
        <path d="M 32,4 A 28,28 0 0 0 4,32 28,28 0 0 0 4.0215,32.586 28,28 0 0 1 32,5 28,28 0 0 1 59.979,32.414 28,28 0 0 0 60,32 28,28 0 0 0 32,4 Z" style="fill:#fff;opacity:.1;stroke-width:3.5558"/>
    </g>
</svg>
